<svg width="48" height="48" viewBox="0 0 48 48" fill="none" xmlns="http://www.w3.org/2000/svg">
<rect width="48" height="48" rx="8" fill="#E9FAFB"/>
<path d="M14.1026 35.6897C14.0924 35.6803 14.0818 35.6712 14.0709 35.6626C13.7446 35.3819 13.4184 35.0809 13.1182 34.7697C12.9275 34.5742 12.6205 34.5742 12.4298 34.7697C12.2389 34.9678 12.2389 35.2886 12.4298 35.4867C12.756 35.8249 13.0823 36.1395 13.4477 36.4439C13.6486 36.6313 13.9581 36.6144 14.1389 36.4062C14.3197 36.1979 14.3035 35.8772 14.1026 35.6897Z" fill="#22B9C3"/>
<path d="M8.98054 20.6477C8.72539 20.5552 8.44627 20.6948 8.35712 20.9593C8.3439 20.9986 8.33534 21.0394 8.33175 21.0807C8.23387 21.5441 8.15883 22.0142 8.10336 22.4843C8.06845 22.7593 8.25295 23.0124 8.51772 23.0525H8.57972C8.82744 23.0527 9.03617 22.861 9.06586 22.6061C9.11806 22.1664 9.18984 21.7233 9.2812 21.2938C9.37035 21.0293 9.23568 20.74 8.98054 20.6477Z" fill="#22B9C3"/>
<path d="M11.6717 33C11.4205 32.6415 11.1823 32.2695 10.9637 31.8907C10.8255 31.6499 10.5252 31.5707 10.2929 31.7139C10.2925 31.7142 10.292 31.7145 10.2916 31.7148C10.0593 31.858 9.98292 32.1693 10.1211 32.4102C10.1213 32.4106 10.1216 32.4111 10.1219 32.4115C10.3568 32.8174 10.6113 33.2165 10.8821 33.5986C11.0491 33.819 11.3568 33.8572 11.5693 33.6841C11.7715 33.5194 11.8163 33.2205 11.6717 33Z" fill="#22B9C3"/>
<path d="M9.96298 29.7981C9.80637 29.3889 9.66282 28.9661 9.5421 28.5399C9.46681 28.2709 9.19527 28.116 8.93572 28.194C8.93115 28.1954 8.92667 28.1968 8.92218 28.1983C8.66532 28.2797 8.51973 28.5605 8.59591 28.8274C8.72642 29.2806 8.8765 29.7338 9.04616 30.1803C9.14796 30.4427 9.43573 30.5699 9.68892 30.4644C9.9421 30.3588 10.0648 30.0605 9.96298 29.7981Z" fill="#22B9C3"/>
<path d="M10.2549 17.1696C10.0135 17.0435 9.71909 17.1442 9.59748 17.3945C9.39192 17.8173 9.20269 18.2536 9.03629 18.6966C8.93816 18.9562 9.0606 19.2493 9.31036 19.3527C9.56167 19.4559 9.84609 19.3284 9.94561 19.0679C9.94593 19.067 9.94626 19.0661 9.94658 19.0653C10.1032 18.6526 10.2729 18.2434 10.4719 17.8511C10.5935 17.6008 10.4964 17.2957 10.2549 17.1696Z" fill="#22B9C3"/>
<path d="M9.08371 26.2713C9.08363 26.2709 9.08363 26.2704 9.08355 26.2699C9.03135 25.8303 8.99546 25.3838 8.97914 24.9441C8.96927 24.6639 8.74211 24.4452 8.47179 24.4554C8.20148 24.4657 7.99046 24.7011 8.00033 24.9813C8.00033 25.4548 8.05254 25.9317 8.11126 26.4018C8.14471 26.6477 8.34496 26.8323 8.58436 26.8381H8.6594C8.92759 26.803 9.11756 26.5492 9.08371 26.2713Z" fill="#22B9C3"/>
<path d="M22.0648 9.34544C22.0387 9.06523 21.7984 8.86011 21.5281 8.88716C21.0746 8.93451 20.6178 9.00215 20.1676 9.09347C19.8972 9.1196 19.6986 9.36793 19.7238 9.64814C19.749 9.92835 19.9886 10.1342 20.2589 10.1081L20.2557 10.0946H20.3503C20.7712 10.01 21.1986 9.94577 21.6227 9.9018C21.893 9.87474 22.0909 9.62565 22.0648 9.34544Z" fill="#22B9C3"/>
<path d="M12.3826 14.1028C12.1791 13.916 11.8679 13.9357 11.6877 14.1467C11.3875 14.5019 11.1004 14.8773 10.8329 15.2628C10.6743 15.4897 10.7232 15.8069 10.9421 15.9713C11.0252 16.0337 11.125 16.0674 11.2276 16.0678V16.0745C11.3852 16.0751 11.5333 15.9971 11.6257 15.8648C11.8769 15.5063 12.1445 15.1546 12.4251 14.8232C12.6052 14.6121 12.5862 14.2896 12.3826 14.1028Z" fill="#22B9C3"/>
<path d="M25.2905 8.97201C24.8403 8.90098 24.3803 8.85025 23.9235 8.8232C23.6532 8.80637 23.4209 9.01987 23.4047 9.30007C23.3885 9.58028 23.5944 9.82101 23.8647 9.83783C24.2954 9.87165 24.7228 9.919 25.1437 9.98665H25.2188C25.4891 10.0072 25.7242 9.79674 25.7441 9.51653C25.7639 9.23641 25.5609 8.99256 25.2905 8.97201Z" fill="#22B9C3"/>
<path d="M15.1608 11.6851C15.0077 11.4696 14.7194 11.4144 14.5021 11.559C14.1269 11.8262 13.7582 12.1171 13.4058 12.4181C13.1977 12.5974 13.1692 12.9176 13.3422 13.1334C13.5152 13.3492 13.8241 13.3787 14.0323 13.1994C14.3585 12.9153 14.7044 12.6447 15.0568 12.3944C15.2745 12.2284 15.321 11.9108 15.1608 11.6851Z" fill="#22B9C3"/>
<path d="M18.5248 10.0821C18.4533 9.81196 18.184 9.653 17.9233 9.72723C17.9004 9.73375 17.8779 9.74203 17.8561 9.75192C17.4287 9.91427 17.0013 10.0901 16.5902 10.3032C16.3451 10.4214 16.2389 10.7232 16.3529 10.9772C16.4329 11.1553 16.605 11.2691 16.7942 11.2702C16.8649 11.2687 16.9344 11.2517 16.9981 11.2198C17.3831 11.0304 17.7811 10.8579 18.1824 10.7057C18.4432 10.6314 18.5965 10.3523 18.5248 10.0821Z" fill="#22B9C3"/>
<path d="M24.4467 39.4313C24.4296 39.1511 24.1966 38.9384 23.9263 38.9561C23.4989 38.9899 23.0682 39.0001 22.6408 38.9866C22.3705 38.9791 22.1455 39.2001 22.1384 39.4803C22.1312 39.7606 22.3444 39.9937 22.6147 40.0012H23.0291C23.3553 40.0012 23.6816 40.0012 23.9883 39.9708C24.2586 39.9531 24.4639 39.7115 24.4467 39.4313Z" fill="#22B9C3"/>
<path d="M37.2543 27.6779C36.9921 27.6088 36.7255 27.7731 36.6589 28.0448C36.5544 28.4744 36.4272 28.9005 36.2836 29.3165C36.1986 29.5778 36.3304 29.8617 36.5805 29.9557C36.835 30.0504 37.1152 29.9132 37.2065 29.6495C37.2067 29.649 37.2068 29.6485 37.207 29.648C37.3603 29.2015 37.4941 28.7449 37.6083 28.2951C37.675 28.0234 37.5165 27.747 37.2543 27.6779Z" fill="#22B9C3"/>
<path d="M37.88 21.8694C37.805 21.4027 37.7104 20.9325 37.5962 20.476C37.518 20.2078 37.2448 20.056 36.9861 20.1371C36.7408 20.2138 36.5943 20.4738 36.65 20.733C36.7576 21.1591 36.8457 21.5988 36.9175 22.0351C36.9597 22.2741 37.1595 22.4486 37.3939 22.4511H37.4754C37.7421 22.4062 37.9232 22.1459 37.88 21.8694Z" fill="#22B9C3"/>
<path d="M39.9556 16.0462C39.9326 15.9944 39.9011 15.9471 39.8625 15.9065L38.9979 14.973C38.8741 14.8449 38.6921 14.798 38.5248 14.8513L36.9652 15.3417L35.1381 13.3327L39.2393 10.9652C39.4783 10.8512 39.5828 10.5578 39.4727 10.3102C39.4497 10.2584 39.4182 10.2111 39.3796 10.1705L38.2279 8.97662C38.1023 8.85156 37.9209 8.80743 37.7548 8.86163L32.5573 10.4918L30.8085 8.56738C30.3628 8.03317 29.6373 7.85468 29.0075 8.12432H28.9781C28.5033 8.32691 28.1262 8.7178 27.9308 9.20998C27.8815 9.3385 27.8465 9.47235 27.8264 9.60907L27.6273 9.53805C27.3697 9.45214 27.0936 9.59901 27.0107 9.86612C26.9278 10.1332 27.0695 10.4194 27.3272 10.5053C27.5784 10.5899 27.8296 10.6846 28.0809 10.7827C28.1565 10.9053 28.2451 11.0187 28.3451 11.1209L30.1886 12.9337L29.66 14.7431C24.4904 10.9206 17.3103 12.166 13.6227 17.5248C9.93507 22.8836 11.1365 30.3264 16.3061 34.149C21.4757 37.9715 28.6558 36.7262 32.3434 31.3674C35.2841 27.094 35.1815 21.3294 32.0907 17.1714L32.926 15.6089L34.864 17.5029L34.3975 19.1026C34.3413 19.2784 34.3855 19.472 34.5117 19.6032C34.5117 19.6032 35.4676 20.584 35.4905 20.6178C35.7165 20.7536 36.006 20.6738 36.1371 20.4395C36.1391 20.4358 36.1411 20.4321 36.143 20.4284L37.4187 18.0034L39.7222 16.7013C39.9612 16.5872 40.0657 16.2938 39.9556 16.0462ZM15.5945 16.7147C17.5615 14.6767 20.2295 13.5329 23.0106 13.5355C23.2282 13.5355 23.4456 13.5423 23.6632 13.5558C25.5131 15.3247 24.9682 16.938 23.7284 18.3923C22.9967 19.1966 22.2118 19.947 21.3793 20.638C20.1753 21.7 19.0529 22.691 18.6288 23.6819C18.1263 24.8589 18.495 25.9243 20.5244 26.8543C21.5391 27.3211 22.0905 27.683 22.3059 27.9569C22.309 27.9609 22.3121 27.9637 22.3153 27.9661C22.3086 27.9682 22.3019 27.9705 22.2928 27.9738C21.8015 28.1678 21.2784 28.2608 20.7528 28.2478C18.2927 28.356 16.5407 26.7258 15.1801 25.4643C14.2013 24.5613 13.3889 23.8104 12.5438 23.8037C12.6835 21.1319 13.7699 18.6075 15.5945 16.7147ZM33.5361 24.4192H33.5394C33.5379 29.133 30.6146 33.3122 26.2929 34.7787C26.1715 33.986 26.313 33.174 26.6942 32.4754C27.2112 31.6148 27.8745 30.8585 28.6518 30.2432C31.6633 27.639 31.833 26.1847 31.9635 25.0652C32.045 24.3583 32.107 23.8307 33.4545 23.063C33.5086 23.5129 33.5359 23.9658 33.5361 24.4192ZM32.9292 20.7598C33.0751 21.1856 33.1949 21.6205 33.2881 22.0619C31.2359 23.1442 31.1445 23.9153 31.0206 24.9671C30.9096 25.9141 30.7661 27.152 28.045 29.5059C27.1734 30.1971 26.4324 31.049 25.859 32.0188C25.359 32.9349 25.1858 34.004 25.3695 35.0391C19.7096 36.3803 14.0726 32.7113 12.7788 26.8444C12.6308 26.1734 12.5445 25.4893 12.521 24.8014C13.0398 24.8014 13.7119 25.4406 14.5374 26.2016C16.0317 27.5849 17.9436 29.3503 20.792 29.2455C21.4631 29.2575 22.1294 29.1263 22.7496 28.8599C23.011 28.7401 23.2089 28.5079 23.2912 28.2241C23.3607 27.9076 23.2725 27.5761 23.0563 27.3414C22.7496 26.9524 22.0775 26.4925 20.9225 25.9581C19.5424 25.3256 19.2422 24.7101 19.513 24.081C19.8393 23.2896 20.8899 22.3899 22.0057 21.3753C22.8752 20.6469 23.694 19.8558 24.456 19.0078C25.8198 17.3979 26.5213 15.6426 25.1346 13.7216C26.6757 14.0481 28.1256 14.7315 29.3762 15.7204L28.6257 18.2874C28.5703 18.4633 28.6144 18.6565 28.7399 18.788C28.7399 18.788 29.9569 20.0394 29.9961 20.063C30.2221 20.1988 30.5116 20.119 30.6427 19.8847C30.6447 19.8811 30.6467 19.8774 30.6486 19.8736L31.5981 18.0946C32.1585 18.915 32.6065 19.8119 32.9292 20.7598ZM37.3045 16.9819L36.8836 17.1984C36.7894 17.2468 36.7136 17.3266 36.6683 17.425L36.4595 17.8647L35.6471 19.3866L35.4089 19.116L35.882 17.496C35.9371 17.3062 35.8766 17.1007 35.7286 16.9752L33.1544 14.4622C32.968 14.2724 32.6685 14.2752 32.4853 14.4684C32.4809 14.4731 32.4767 14.4777 32.4725 14.4825C32.4398 14.5197 30.1233 18.8455 30.1233 18.8455L29.6176 18.3213L31.1967 12.9268C31.2533 12.7359 31.1927 12.5286 31.0434 12.4025L28.9944 10.4037C28.7677 10.2046 28.6923 9.87559 28.8084 9.59199C28.9125 9.34628 29.1026 9.15054 29.3403 9.04409H29.3566C29.6268 8.93595 29.9334 9.01746 30.12 9.24702L32.0777 11.3913C32.2006 11.5281 32.3879 11.5806 32.5606 11.5266L37.7809 9.893L38.2866 10.4172L34.143 12.778C33.9136 12.9077 33.8291 13.2056 33.9543 13.4433C33.9563 13.447 33.9582 13.4507 33.9603 13.4544C33.9798 13.4916 36.4758 16.2446 36.4758 16.2446C36.5995 16.3803 36.7867 16.4314 36.9587 16.3765L38.528 15.8861L38.7727 16.1398L37.3045 16.9819Z" fill="#22B9C3"/>
<path d="M36.048 31.2441C36.0409 31.2398 36.0336 31.2355 36.0263 31.2317C35.7924 31.1049 35.5038 31.1932 35.3738 31.4312C35.1682 31.8201 34.9431 32.2023 34.7016 32.5676C34.5458 32.7973 34.5991 33.1146 34.8207 33.2762C35.0424 33.4377 35.3484 33.3824 35.5043 33.1527C35.7588 32.7604 36.0002 32.3511 36.2221 31.9385C36.359 31.6969 36.281 31.386 36.048 31.2441Z" fill="#22B9C3"/>
<path d="M37.5933 23.8379C37.3231 23.8341 37.101 24.0581 37.0972 24.3382C37.0971 24.3451 37.0971 24.3519 37.0974 24.3588V24.4163C37.0974 24.8593 37.0778 25.3058 37.0387 25.7488C37.0142 26.0279 37.2125 26.2747 37.4817 26.3C37.4819 26.3 37.4821 26.3001 37.4824 26.3001H37.5281C37.7862 26.3027 38.0018 26.0969 38.0207 25.83C38.0632 25.3599 38.0827 24.883 38.0827 24.4095V24.3419C38.0809 24.063 37.8623 23.8379 37.5933 23.8379Z" fill="#22B9C3"/>
<path d="M20.4102 38.7308C19.986 38.6564 19.5652 38.5617 19.1573 38.4332C18.9023 38.3402 18.623 38.4791 18.5332 38.7435C18.4435 39.0078 18.5776 39.2974 18.8326 39.3904C18.8513 39.3972 18.8704 39.4028 18.8898 39.4073C19.327 39.5358 19.7772 39.6474 20.2275 39.7455H20.3188C20.5892 39.7716 20.8287 39.5657 20.8539 39.2855C20.8791 39.0053 20.6805 38.757 20.4102 38.7308Z" fill="#22B9C3"/>
<path d="M27.9835 38.5782C27.895 38.3291 27.6362 38.1928 27.39 38.2657V38.2792C26.9854 38.4179 26.5678 38.5363 26.1534 38.6174C25.8894 38.6791 25.7236 38.9509 25.7831 39.2245C25.8425 39.4981 26.1048 39.67 26.3687 39.6084C26.8125 39.5035 27.2595 39.375 27.6934 39.2296C27.9471 39.1327 28.0769 38.8411 27.9835 38.5782Z" fill="#22B9C3"/>
<path d="M17.0539 37.6282C16.6656 37.4286 16.2839 37.2122 15.9152 36.9957C15.6818 36.8538 15.3817 36.9348 15.2447 37.1767C15.1078 37.4186 15.1859 37.7297 15.4193 37.8717C15.8141 38.1118 16.2219 38.335 16.6363 38.5481C16.8813 38.6677 17.1735 38.5586 17.2888 38.3046C17.4041 38.0506 17.299 37.7477 17.0539 37.6282Z" fill="#22B9C3"/>
<path d="M33.9696 34.3631C33.7735 34.1776 33.4703 34.1879 33.2865 34.3866H33.2897C32.9961 34.7248 32.6861 35.0224 32.3697 35.3167C32.1679 35.5034 32.1503 35.8245 32.3305 36.0337C32.5107 36.2428 32.8204 36.261 33.0222 36.0742C33.3485 35.7597 33.6943 35.4249 34.001 35.0799C34.1833 34.8729 34.1692 34.552 33.9696 34.3631Z" fill="#22B9C3"/>
<path d="M31.2658 36.8935C31.1272 36.6531 30.8267 36.5747 30.5946 36.7184C30.5868 36.7232 30.5791 36.7283 30.5716 36.7336V36.7201C30.2127 36.9569 29.8375 37.1801 29.459 37.3965C29.2185 37.5245 29.1235 37.8304 29.247 38.0797C29.3704 38.3291 29.6655 38.4275 29.906 38.2996C30.3106 38.0831 30.7119 37.843 31.0969 37.5893C31.3289 37.4455 31.4046 37.134 31.2658 36.8935Z" fill="#22B9C3"/>
</svg>
