<svg width="48" height="48" viewBox="0 0 48 48" fill="none" xmlns="http://www.w3.org/2000/svg">
<rect width="48" height="48" rx="8" fill="#E8EFFD"/>
<path d="M31.0679 12H30.0417C29.0898 12 28.2026 12.4487 27.6386 13.2078L27.3564 13.2786C26.5203 13.4873 25.9365 14.2351 25.9365 15.0968C25.9365 15.9314 26.3302 17.0246 26.3468 17.0711L26.4359 17.3161C26.6209 16.9209 27.0196 16.6453 27.4849 16.6453H27.872L27.8736 16.6739C27.8825 15.9717 28.3617 15.3616 29.0449 15.1909L29.4204 15.0968C29.4204 15.5246 29.7668 15.871 30.1946 15.871H31.743C32.1707 15.871 32.5172 16.2175 32.5172 16.6453H32.9042C33.3839 16.6453 33.795 16.936 33.9722 17.3506H33.9804L34.2788 16.4552C34.3942 16.1087 34.4526 15.7491 34.4526 15.3845C34.4526 13.5182 32.9344 12 31.0679 12Z" fill="#1354D3"/>
<path d="M18.58 19.6535H18.88V19.3535V17.718H21.7639V21.7632H16.9445V19.6535H18.58Z" stroke="#1354D3" stroke-width="0.6"/>
<path d="M33.5105 22.0245L32.5769 21.8379C32.2695 21.7764 32.0307 21.5379 31.9695 21.2305L31.798 20.3731C32.1553 20.1091 32.4449 19.7603 32.638 19.3558H32.9032C33.7571 19.3558 34.4516 18.6613 34.4516 17.8074C34.4516 16.9534 33.7571 16.259 32.9032 16.259H32.832C32.6717 15.8095 32.2459 15.4847 31.7419 15.4847H30.1935C29.9802 15.4847 29.8064 15.3113 29.8064 15.0976C29.8064 14.884 29.9802 14.7105 30.1935 14.7105H30.5806V13.9359H30.1935C29.6616 13.9359 29.2118 14.2956 29.0752 14.7841L28.9498 14.8154C28.2317 14.9951 27.6998 15.5618 27.5392 16.2586H27.4838C26.6299 16.2586 25.9355 16.953 25.9355 17.807C25.9355 18.6609 26.6299 19.3554 27.4838 19.3554H27.749C27.9422 19.7599 28.2317 20.1087 28.589 20.3727L28.4175 21.2302C28.356 21.5375 28.1175 21.776 27.8102 21.8375L26.8765 22.0241C26.2776 22.1437 25.7493 22.4356 25.3331 22.839H13.5484V14.323H26.1089C26.2505 14.0114 26.472 13.7424 26.7565 13.5488H12.7742V23.6136H16.5364L15.9557 25.9362H12V26.7104H35.9999V25.0606C35.9999 23.5896 34.9529 22.3129 33.5105 22.0245ZM27.4838 18.5812C27.0569 18.5812 26.7096 18.234 26.7096 17.807C26.7096 17.38 27.0569 17.0328 27.4838 17.0328V18.1941C27.4838 18.3257 27.4966 18.4542 27.5148 18.5812H27.4838ZM30.3015 23.6136H30.0855L29.933 23.1564L30.1935 22.9481L30.454 23.1564L30.3015 23.6136ZM29.2889 23.672L29.4089 24.032L29.2463 25.0071L28.8127 24.0529L29.2889 23.672ZM30.1343 24.3878H30.2527L30.5109 25.9362H29.8761L30.1343 24.3878ZM30.9781 24.032L31.0982 23.672L31.5743 24.0529L31.1407 25.0071L30.9781 24.032ZM32.2575 22.5502L31.9049 23.3259L30.9077 22.5281L31.6281 22.1681C31.8011 22.3423 32.0163 22.4731 32.2575 22.5502ZM33.6774 17.807C33.6774 18.234 33.3301 18.5812 32.9032 18.5812H32.8722C32.8904 18.4542 32.9032 18.3257 32.9032 18.1941V17.0328C33.3301 17.0328 33.6774 17.38 33.6774 17.807ZM28.258 18.1941V16.6933C28.258 16.1614 28.6173 15.6996 29.1321 15.568C29.3129 15.9744 29.7205 16.2586 30.1935 16.2586H31.7419C31.9552 16.2586 32.129 16.432 32.129 16.6457V18.1941C32.129 19.2613 31.2607 20.1296 30.1935 20.1296C29.1263 20.1296 28.258 19.2613 28.258 18.1941ZM30.1935 20.9038C30.5059 20.9038 30.8047 20.8481 31.0842 20.7501L31.2108 21.3819C31.2185 21.4206 31.2317 21.4574 31.2421 21.4949L30.1935 22.0195L29.1449 21.4953C29.1553 21.4578 29.1685 21.421 29.1762 21.3823L29.3028 20.7505C29.5823 20.8481 29.8811 20.9038 30.1935 20.9038ZM28.7589 22.1677L29.4793 22.5277L28.4822 23.3256L28.1295 22.5498C28.3707 22.4731 28.5859 22.3423 28.7589 22.1677ZM27.0282 22.7832L27.3553 22.7178L28.8182 25.9362H25.1613V25.0606C25.1613 23.9577 25.9463 22.9996 27.0282 22.7832ZM22.9475 23.6136H24.7509C24.5195 24.0491 24.3871 24.5422 24.3871 25.0606V25.9362H23.5281L22.9475 23.6136ZM22.7299 25.9362H18.6894L19.27 23.6136H22.1493L22.7299 25.9362ZM17.3346 23.6136H18.4719L17.8912 25.9362H16.7539L17.3346 23.6136ZM35.2258 25.9362H31.5689L33.0317 22.7178L33.3588 22.7832C34.4407 22.9996 35.2258 23.9577 35.2258 25.0606V25.9362Z" fill="#1354D3"/>
<path d="M22.064 18.9679V19.7421H25.1608V15.8711H20.5156V17.4195H21.2898V16.6453H24.3866V18.9679H22.064Z" fill="#1354D3"/>
<path d="M18.9674 19.7429V15.0977H14.3223V19.7429H18.9674ZM15.0965 15.8719H18.1932V18.9687H15.0965V15.8719Z" fill="#1354D3"/>
<path d="M33.4796 32.2639C34.083 31.7557 34.4516 30.9997 34.4516 30.1922V29.8051C34.4516 28.5241 33.4099 27.4824 32.129 27.4824H31.3548C30.0739 27.4824 29.0322 28.5241 29.0322 29.8051V30.1922C29.0322 31 29.4011 31.7564 30.0038 32.2639C29.0659 32.5314 28.3002 33.1752 27.8682 34.0175C27.4327 33.176 26.6655 32.5345 25.7396 32.2667C26.3318 31.7692 26.7096 31.024 26.7096 30.1922V29.8051C26.7096 28.5241 25.668 27.4824 24.3871 27.4824H23.6129C22.332 27.4824 21.2903 28.5241 21.2903 29.8051V30.1922C21.2903 31.024 21.6681 31.7692 22.2604 32.2667C21.3333 32.5349 20.5657 33.1771 20.1306 34.0202C19.6959 33.1771 18.9275 32.533 18.0004 32.2643C18.5911 31.7669 18.9677 31.0229 18.9677 30.1922V29.4179C18.9677 28.3507 18.0995 27.4824 17.0322 27.4824H14.3226C13.8956 27.4824 13.5484 27.8297 13.5484 28.2566V30.1922C13.5484 31.024 13.9262 31.7692 14.5184 32.2667C13.0661 32.6867 12 34.0257 12 35.6116V35.9987H35.9999V35.6116C35.9999 34.0295 34.9509 32.6836 33.4796 32.2639ZM32.5161 32.9019C32.5161 33.3289 32.1689 33.6761 31.7419 33.6761C31.3149 33.6761 30.9677 33.3289 30.9677 32.9019C30.9677 32.8632 30.9774 32.8272 30.9828 32.79C31.2271 32.8612 31.4829 32.9019 31.7419 32.9019C32.0009 32.9019 32.2571 32.8612 32.501 32.79C32.5064 32.8272 32.5161 32.8632 32.5161 32.9019ZM29.8064 30.1922V29.8051C29.8064 28.9511 30.5009 28.2566 31.3548 28.2566H32.129C32.9829 28.2566 33.6774 28.9511 33.6774 29.8051V30.1922C33.6774 30.9381 33.2403 31.6256 32.561 31.945C32.0647 32.1838 31.4221 32.1854 30.9197 31.9434C30.2434 31.6256 29.8064 30.9381 29.8064 30.1922ZM22.0645 30.1922V29.8051C22.0645 28.9511 22.7589 28.2566 23.6129 28.2566H24.3871C25.241 28.2566 25.9355 28.9511 25.9355 29.8051V30.1922C25.9355 31.2594 25.0672 32.1277 24 32.1277C22.9327 32.1277 22.0645 31.2594 22.0645 30.1922ZM23.2258 32.9019H24.7742C26.1364 32.9019 27.264 33.9138 27.4529 35.2245H20.5471C20.736 33.9138 21.8636 32.9019 23.2258 32.9019ZM14.3226 30.1922V28.2566H17.0322C17.6725 28.2566 18.1935 28.7777 18.1935 29.4179V30.1922C18.1935 31.2594 17.3253 32.1277 16.2581 32.1277C15.1908 32.1277 14.3226 31.2594 14.3226 30.1922ZM12.8017 35.2245C12.9902 33.913 14.1209 32.9019 15.4839 32.9019H17.0322C18.3952 32.9019 19.5259 33.913 19.7144 35.2245H12.8017ZM28.2882 35.2245C28.4384 34.1704 29.1894 33.3064 30.2043 33.0111C30.2616 33.8131 30.9255 34.4503 31.7419 34.4503C32.5579 34.4503 33.2218 33.8135 33.279 33.0118C34.2944 33.3072 35.0485 34.1704 35.1983 35.2245H28.2882Z" fill="#1354D3"/>
</svg>
