<svg width="48" height="48" viewBox="0 0 48 48" fill="none" xmlns="http://www.w3.org/2000/svg">
<rect width="48" height="48" rx="8" fill="#FFF8E5"/>
<path d="M33.9217 30.0758H28.9477V25.6606C28.9477 24.1367 27.7105 22.9012 26.1843 22.9012H22.8683V19.8713L30.3736 14.5179C30.4952 14.4319 30.5769 14.3006 30.6002 14.1536C30.6222 14.0072 30.5843 13.858 30.4952 13.7397L28.8371 11.5321C28.6585 11.2949 28.324 11.2413 28.08 11.4107L22.4151 15.3236C23.4168 13.4391 22.6989 11.1003 20.8117 10.1001C18.9244 9.09978 16.5824 9.81669 15.5808 11.7013C14.7753 13.2166 15.0671 15.0807 16.297 16.2784H15.6836C15.5276 16.2788 15.379 16.3449 15.2746 16.4605L11.7043 20.4232C10.7241 21.5168 10.7727 23.1853 11.8149 24.2202L14.7385 27.1563C14.8534 27.2711 15.0131 27.3297 15.1751 27.3163C15.3392 27.3037 15.4891 27.2188 15.5841 27.0845L16.2362 26.1629V36.1467C16.2362 36.4515 16.4837 36.6986 16.7889 36.6986H20.1049C20.4101 36.6986 20.6576 36.4515 20.6576 36.1467V27.3163H24.5263V30.0758H22.8683C22.5631 30.0758 22.3156 30.3229 22.3156 30.6277V36.1467C22.3156 36.4515 22.5631 36.6986 22.8683 36.6986H33.9217C34.2269 36.6986 34.4744 36.4515 34.4744 36.1467V30.6277C34.4744 30.3229 34.227 30.0758 33.9217 30.0758ZM16.2362 13.5189C16.2362 11.995 17.4735 10.7595 18.9996 10.7595C20.5257 10.7595 21.7629 11.995 21.7629 13.5189C21.7629 15.0429 20.5257 16.2784 18.9996 16.2784C17.4735 16.2784 16.2362 15.0429 16.2362 13.5189ZM20.3149 17.3822L19.5523 18.9054L18.7896 17.3822H20.3149ZM16.2362 23.293L15.352 22.3493L16.2362 21.4662V23.293ZM20.1049 26.2125C19.7997 26.2125 19.5523 26.4597 19.5523 26.7644V35.5948H17.3416V20.1417C17.3405 19.9189 17.2053 19.7186 16.9989 19.6339C16.7931 19.5475 16.5555 19.5932 16.3965 19.7498L14.1858 21.9574C13.9752 22.172 13.9752 22.5155 14.1858 22.7301L15.9931 24.612L15.059 25.9145L12.5831 23.4531C11.9517 22.8291 11.9249 21.8192 12.5223 21.1627L15.9323 17.3822H17.5516L19.0604 20.39C19.1996 20.6613 19.5326 20.7686 19.8043 20.6296C19.9074 20.5768 19.9914 20.493 20.0441 20.39L21.6414 17.2056L28.2734 12.6194L29.2738 13.9494L21.9951 19.1428C21.8501 19.2458 21.7638 19.4122 21.7629 19.5898V23.4531C21.7629 23.7578 22.0104 24.005 22.3156 24.005H26.1843C27.1 24.005 27.8423 24.7462 27.8423 25.6606V30.0758H25.6316V26.7644C25.6316 26.4597 25.3842 26.2125 25.079 26.2125H20.1049ZM33.3691 35.5948H23.421V31.1796H33.3691V35.5948Z" fill="#B38400"/>
<path d="M37.5472 20.2862C35.7943 20.2862 34.3734 18.8672 34.3734 17.1168C34.3734 16.8668 34.1704 16.6641 33.92 16.6641C33.6696 16.6641 33.4666 16.8668 33.4666 17.1168C33.4666 18.8672 32.0456 20.2862 30.2928 20.2862C30.0424 20.2862 29.8394 20.4889 29.8394 20.739C29.8394 20.989 30.0424 21.1917 30.2928 21.1917C32.0456 21.1917 33.4666 22.6107 33.4666 24.3611C33.4666 24.6111 33.6696 24.8138 33.92 24.8138C34.1704 24.8138 34.3734 24.6111 34.3734 24.3611C34.3734 22.6107 35.7943 21.1917 37.5472 21.1917C37.7976 21.1917 38.0006 20.989 38.0006 20.739C38.0006 20.4889 37.7976 20.2862 37.5472 20.2862ZM33.92 22.4957C33.5291 21.743 32.9146 21.1294 32.1608 20.739C32.9146 20.3486 33.529 19.7349 33.92 18.9822C34.3109 19.7349 34.9254 20.3486 35.6792 20.739C34.9254 21.1294 34.3109 21.743 33.92 22.4957Z" fill="#B38400"/>
</svg>
