<svg width="48" height="48" viewBox="0 0 48 48" fill="none" xmlns="http://www.w3.org/2000/svg">
<rect width="48" height="48" rx="8" fill="#FCE9E9"/>
<path d="M15.9876 33.3248C15.9005 33.2376 15.7795 33.1875 15.6563 33.1875C15.533 33.1875 15.412 33.2376 15.3248 33.3248C15.2377 33.4121 15.1875 33.533 15.1875 33.6562C15.1875 33.7795 15.2376 33.9005 15.3248 33.9876C15.412 34.0748 15.533 34.125 15.6563 34.125C15.7795 34.125 15.9005 34.0748 15.9876 33.9876C16.0748 33.9005 16.125 33.7795 16.125 33.6562C16.125 33.533 16.0749 33.412 15.9876 33.3248Z" fill="#9D1515"/>
<path d="M34.0092 20.5748C33.922 20.4876 33.8015 20.4375 33.6777 20.4375C33.5545 20.4375 33.4335 20.4876 33.3463 20.5748C33.2592 20.662 33.209 20.783 33.209 20.9062C33.209 21.0295 33.2591 21.1505 33.3463 21.2376C33.4335 21.3248 33.5545 21.375 33.6777 21.375C33.8015 21.375 33.922 21.3248 34.0092 21.2376C34.0968 21.1505 34.1469 21.0295 34.1469 20.9062C34.1469 20.783 34.0968 20.662 34.0092 20.5748Z" fill="#9D1515"/>
<path d="M35.8627 12.1373C35.7748 12.0494 35.6555 12 35.5311 12L23.9999 12.0006C23.741 12.0006 23.5312 12.2105 23.5312 12.4694V13.8098L19.0878 15.0004C18.8377 15.0674 18.6893 15.3245 18.7564 15.5745L21.0592 24.1686L19.0671 26.1608C18.8135 25.7906 18.3878 25.5471 17.9062 25.5471H13.4062C12.6308 25.5471 12 26.1779 12 26.9533V34.5937C12 35.3691 12.6308 36 13.4062 36H17.9063C18.565 36 19.1192 35.5445 19.2711 34.9321L19.8284 35.4182C20.2587 35.7934 20.81 36 21.3809 36H35.5312C35.7901 36 36 35.7901 36 35.5313V12.4687C35.9999 12.3444 35.9506 12.2252 35.8627 12.1373ZM18.3749 34.5938C18.3749 34.8522 18.1646 35.0625 17.9062 35.0625H13.4062C13.1477 35.0625 12.9374 34.8522 12.9374 34.5938V26.9533C12.9374 26.6949 13.1477 26.4846 13.4062 26.4846H15.1874V31.8843C15.1874 32.1432 15.3974 32.3531 15.6562 32.3531C15.9151 32.3531 16.125 32.1432 16.125 31.8843V26.4846H17.9062C18.1647 26.4846 18.375 26.6949 18.375 26.9533V34.5938H18.3749ZM19.7832 15.7846L23.5312 14.7804V16.5173L23.217 16.6015C23.0969 16.6337 22.9945 16.7122 22.9324 16.8199C22.8702 16.9276 22.8533 17.0555 22.8855 17.1756C23.0657 17.8478 22.6653 18.5413 21.9931 18.7214C21.8728 18.7536 21.7703 18.8323 21.7082 18.9402C21.6461 19.0481 21.6294 19.1762 21.6618 19.2964L23.489 26.0622H22.5482L22.0634 24.1655C22.048 24.1051 22.021 24.0495 21.9848 24.0011L19.7832 15.7846ZM23.5312 18.667V22.6223L22.6762 19.4566C23.0333 19.2722 23.3256 18.9963 23.5312 18.667ZM30.2656 35.0625H21.3808C21.0365 35.0625 20.704 34.9379 20.4445 34.7116L19.3125 33.7244V27.2412L21.359 25.1948L21.7301 26.647C21.7832 26.8545 21.9701 26.9996 22.1843 26.9996L31.4003 27.0002C31.7622 27.0002 32.0566 27.2945 32.0566 27.6564C32.0566 28.0183 31.7622 28.3127 31.4003 28.3127H26.678C26.4192 28.3127 26.2093 28.5226 26.2093 28.7814C26.2093 29.0402 26.4192 29.2502 26.678 29.2502H32.8675C33.2294 29.2502 33.5238 29.5445 33.5238 29.9064C33.5238 30.2683 33.2294 30.5627 32.8675 30.5627H26.678C26.4192 30.5627 26.2093 30.7726 26.2093 31.0314C26.2093 31.2902 26.4192 31.5002 26.678 31.5002H31.8645C32.2264 31.5002 32.5208 31.7945 32.5208 32.1564C32.5208 32.5183 32.2264 32.8126 31.8645 32.8126H26.678C26.4192 32.8126 26.2093 33.0226 26.2093 33.2814C26.2093 33.5402 26.4192 33.7501 26.678 33.7501H30.2656C30.6275 33.7501 30.9219 34.0445 30.9219 34.4064C30.9218 34.7681 30.6274 35.0625 30.2656 35.0625ZM35.0625 35.0625H35.0624H31.7174C31.8083 34.8622 31.8593 34.6401 31.8593 34.4062C31.8593 34.1723 31.8083 33.9503 31.7174 33.75H31.8645C32.7433 33.75 33.4583 33.035 33.4583 32.1563C33.4583 31.8999 33.3971 31.6577 33.2891 31.443C33.9639 31.2576 34.4612 30.6391 34.4612 29.9063C34.4612 29.5508 34.3441 29.2222 34.1467 28.9569V23.0159C34.1467 22.7571 33.9367 22.5472 33.6779 22.5472C33.419 22.5472 33.2091 22.7571 33.2091 23.0159V28.3499C33.099 28.3258 32.9847 28.3127 32.8675 28.3127H32.8521C32.943 28.1124 32.994 27.8903 32.994 27.6564C32.994 26.7776 32.2791 26.0627 31.4003 26.0627H30.6467C31.4469 25.7196 32.0088 24.9243 32.0088 24C32.0088 22.763 31.0025 21.7566 29.7655 21.7566C28.5285 21.7566 27.5221 22.763 27.5221 24C27.5221 24.9243 28.0841 25.7196 28.8842 26.0627H26.3218V17.1498C27.1592 16.9673 27.82 16.3066 28.0024 15.4692H31.5285C31.7109 16.3066 32.3717 16.9673 33.2091 17.1498V18.6072C33.2091 18.866 33.419 19.0759 33.6778 19.0759C33.9367 19.0759 34.1466 18.866 34.1466 18.6072V16.7313C34.1466 16.4725 33.9367 16.2626 33.6778 16.2626C32.9819 16.2626 32.4158 15.6964 32.4158 15.0005C32.4158 14.7416 32.2058 14.5317 31.947 14.5317H27.5839C27.3251 14.5317 27.1152 14.7416 27.1152 15.0005C27.1152 15.6964 26.549 16.2626 25.8531 16.2626C25.5942 16.2626 25.3843 16.4725 25.3843 16.7313V26.0627H24.4687V12.938L35.0625 12.9375V35.0625ZM29.7656 25.3058C29.0455 25.3058 28.4597 24.72 28.4597 24C28.4597 23.28 29.0455 22.6942 29.7656 22.6942C30.4856 22.6942 31.0714 23.28 31.0714 24C31.0714 24.72 30.4856 25.3058 29.7656 25.3058Z" fill="#9D1515"/>
</svg>
