<svg width="48" height="48" viewBox="0 0 48 48" fill="none" xmlns="http://www.w3.org/2000/svg">
<rect width="48" height="48" rx="8" fill="#EDEBFA"/>
<path d="M23.9995 11.9C24.2756 11.9 24.4995 11.6836 24.4995 11.4166V9.48333C24.4995 9.21641 24.2756 9 23.9995 9C23.7234 9 23.4995 9.21641 23.4995 9.48333V11.4166C23.4995 11.6836 23.7233 11.9 23.9995 11.9Z" fill="#8273D9"/>
<path d="M17.8168 11.2142L18.8168 12.888C18.9533 13.1201 19.2586 13.2012 19.4986 13.0692C19.7387 12.9373 19.8226 12.6422 19.6861 12.4102C19.6851 12.4083 19.6839 12.4065 19.6828 12.4046L18.6828 10.7308C18.5463 10.4988 18.2411 10.4176 18.001 10.5496C17.7609 10.6815 17.677 10.9766 17.8135 11.2087C17.8146 11.2105 17.8157 11.2124 17.8168 11.2142Z" fill="#8273D9"/>
<path d="M13.7843 15.457C13.7862 15.4581 13.7881 15.4591 13.7901 15.4602L15.5216 16.4269C15.7598 16.5618 16.0661 16.4846 16.2058 16.2543C16.3454 16.024 16.2655 15.7279 16.0273 15.5929C16.0254 15.5918 16.0235 15.5908 16.0215 15.5897L14.29 14.6231C14.0518 14.4881 13.7455 14.5653 13.6058 14.7956C13.4662 15.0259 13.5461 15.322 13.7843 15.457Z" fill="#8273D9"/>
<path d="M15 20.6005C15 20.3336 14.7761 20.1172 14.5 20.1172H12.5C12.2239 20.1172 12 20.3336 12 20.6005C12 20.8674 12.2239 21.0838 12.5 21.0838H14.5C14.7761 21.0838 15 20.8674 15 20.6005Z" fill="#8273D9"/>
<path d="M15.5274 24.7702C15.5255 24.7713 15.5236 24.7724 15.5216 24.7735L13.7901 25.7402C13.5501 25.872 13.4661 26.1671 13.6025 26.3992C13.7389 26.6312 14.0442 26.7124 14.2842 26.5805C14.2862 26.5795 14.2881 26.5784 14.2901 26.5773L16.0216 25.6106C16.2616 25.4787 16.3456 25.1837 16.2092 24.9516C16.0727 24.7195 15.7675 24.6383 15.5274 24.7702Z" fill="#8273D9"/>
<path d="M34.2149 25.7434C34.213 25.7423 34.2111 25.7413 34.2091 25.7402L32.4776 24.7735C32.2394 24.6385 31.9331 24.7157 31.7934 24.9459C31.6537 25.1762 31.7336 25.4723 31.9718 25.6074C31.9737 25.6085 31.9756 25.6095 31.9776 25.6106L33.7091 26.5773C33.9473 26.7123 34.2536 26.6351 34.3933 26.4049C34.533 26.1746 34.4531 25.8785 34.2149 25.7434Z" fill="#8273D9"/>
<path d="M35.5 20.1172H33.5C33.2239 20.1172 33 20.3336 33 20.6005C33 20.8674 33.2239 21.0838 33.5 21.0838H35.5C35.7761 21.0838 36 20.8674 36 20.6005C36 20.3336 35.7761 20.1172 35.5 20.1172Z" fill="#8273D9"/>
<path d="M32.2277 16.4917C32.3154 16.4917 32.4017 16.4693 32.4777 16.4269L34.2092 15.4602C34.4492 15.3283 34.5332 15.0332 34.3967 14.8012C34.2602 14.5691 33.9549 14.488 33.7149 14.6199C33.7129 14.6209 33.711 14.622 33.7091 14.6231L31.9776 15.5898C31.7385 15.7232 31.6565 16.0188 31.7946 16.25C31.884 16.3995 32.049 16.4917 32.2277 16.4917Z" fill="#8273D9"/>
<path d="M28.4987 13.0651C28.4989 13.0652 28.4991 13.0653 28.4993 13.0654C28.7385 13.1987 29.0443 13.1194 29.1822 12.8881C29.1822 12.8881 29.1823 12.888 29.1823 12.888L30.1823 11.2142C30.322 10.984 30.2421 10.6878 30.0039 10.5528C29.7657 10.4178 29.4593 10.495 29.3197 10.7252C29.3185 10.7271 29.3174 10.729 29.3163 10.7309L28.3163 12.4046C28.178 12.6357 28.2597 12.9314 28.4987 13.0651Z" fill="#8273D9"/>
<path d="M25 28.3326C25.2761 28.3326 25.5 28.1162 25.5 27.8493V22.5327H26.5C27.6046 22.5327 28.5 21.6671 28.5 20.5993C28.5 19.5316 27.6046 18.666 26.5 18.666C25.3954 18.666 24.5 19.5316 24.5 20.5993V21.566H23.5V20.5993C23.5 19.5316 22.6046 18.666 21.5 18.666C20.3954 18.666 19.5 19.5316 19.5 20.5993C19.5 21.6671 20.3954 22.5327 21.5 22.5327H22.5V27.8493C22.5 28.1162 22.7239 28.3326 23 28.3326C23.2761 28.3326 23.5 28.1162 23.5 27.8493V22.5327H24.5V27.8493C24.5 28.1162 24.7238 28.3326 25 28.3326ZM25.5 20.5993C25.5 20.0654 25.9477 19.6327 26.5 19.6327C27.0523 19.6327 27.5 20.0654 27.5 20.5993C27.5 21.1332 27.0523 21.566 26.5 21.566H25.5V20.5993ZM22.5 21.566H21.5C20.9477 21.566 20.5 21.1332 20.5 20.5993C20.5 20.0654 20.9477 19.6327 21.5 19.6327C22.0523 19.6327 22.5 20.0654 22.5 20.5993V21.566Z" fill="#8273D9"/>
<path d="M24.3888 12.8763C19.9756 12.6713 16.2261 15.9635 16.0141 20.2295C15.8927 22.6723 16.9737 25.0266 18.9293 26.5782C19.2817 26.845 19.4914 27.2509 19.5003 27.6836V28.817C19.5029 29.4292 19.9031 29.9739 20.5003 30.178V30.7503C20.5016 31.1081 20.6406 31.4527 20.8903 31.7169C20.3703 32.2633 20.3703 33.1039 20.8903 33.6503C20.3344 34.2393 20.3778 35.1525 20.9872 35.6898C21.264 35.9339 21.6256 36.0685 22.0003 36.0669C22.2694 36.0737 22.4934 35.8683 22.5004 35.6082C22.5031 35.5067 22.4719 35.407 22.4113 35.324C22.3955 35.2945 22.3767 35.2665 22.3553 35.2404C22.3142 35.2041 22.2672 35.1743 22.2163 35.1525C22.2018 35.1452 22.1873 35.1394 22.1723 35.1336C22.1217 35.1158 22.0686 35.1055 22.0148 35.1032C22.0098 35.1032 22.0053 35.1003 22.0003 35.1003C21.7242 35.1003 21.5003 34.8838 21.5003 34.6169C21.5003 34.35 21.7242 34.1336 22.0003 34.1336H24.0003C24.2764 34.1336 24.5003 33.9172 24.5003 33.6503C24.5003 33.3833 24.2764 33.1669 24.0003 33.1669H22.0003C21.7242 33.1669 21.5003 32.9505 21.5003 32.6836C21.5003 32.4167 21.7242 32.2003 22.0003 32.2003H24.0003C24.2764 32.2003 24.5003 31.9839 24.5003 31.7169C24.5003 31.45 24.2764 31.2336 24.0003 31.2336H22.0003C21.7242 31.2336 21.5003 31.0172 21.5003 30.7503V30.267H24.0003C24.2764 30.267 24.5003 30.0505 24.5003 29.7836C24.5003 29.5167 24.2764 29.3003 24.0003 29.3003H21.0003C20.7242 29.3003 20.5003 29.0839 20.5003 28.817V27.6836C20.4921 26.9609 20.1478 26.2801 19.5628 25.83C16.5761 23.4572 16.1447 19.1931 18.5994 16.306C20.0035 14.6544 22.1324 13.7414 24.3413 13.8434C28.0355 14.0558 30.9373 16.9824 31.0003 20.5593C31.0182 22.6166 30.0613 24.5687 28.4028 25.858C27.8222 26.3203 27.4902 27.0125 27.5003 27.7396V28.817C27.5003 29.0839 27.2764 29.3003 27.0003 29.3003H25.5003C25.2242 29.3003 25.0003 29.5167 25.0003 29.7836C25.0003 30.0505 25.2242 30.267 25.5003 30.267H26.5003V30.7503C26.5003 31.0172 26.2764 31.2336 26.0003 31.2336H25.5003C25.2242 31.2336 25.0003 31.45 25.0003 31.7169C25.0003 31.9839 25.2242 32.2003 25.5003 32.2003H26.0003C26.2764 32.2003 26.5003 32.4167 26.5003 32.6836C26.5003 32.9505 26.2764 33.1669 26.0003 33.1669H25.5003C25.2242 33.1669 25.0003 33.3833 25.0003 33.6503C25.0003 33.9172 25.2242 34.1336 25.5003 34.1336H26.0003C26.2764 34.1336 26.5003 34.35 26.5003 34.6169C26.5003 34.8838 26.2764 35.1003 26.0003 35.1003H23.5003C23.2242 35.1003 23.0003 35.3167 23.0003 35.5836C23.0003 35.8505 23.2242 36.0669 23.5003 36.0669H25.4148C25.1387 36.8219 24.2817 37.2177 23.5007 36.9508C23.2616 36.8691 23.0478 36.7301 22.8793 36.5469C22.6957 36.3475 22.3796 36.3297 22.1733 36.5072C21.9671 36.6847 21.9487 36.9903 22.1323 37.1897C23.0467 38.1858 24.6234 38.2767 25.6538 37.3928C26.0794 37.0277 26.3631 36.533 26.4578 35.9905C27.2409 35.754 27.6772 34.9485 27.4326 34.1916C27.3676 33.9905 27.2575 33.8057 27.1103 33.6503C27.6303 33.1039 27.6303 32.2633 27.1103 31.7169C27.36 31.4527 27.499 31.1081 27.5003 30.7503V30.178C28.0975 29.9739 28.4977 29.4292 28.5003 28.817V27.7396C28.4936 27.3054 28.6882 26.891 29.0308 26.6101C30.9273 25.1362 32.0214 22.9042 32.0003 20.552C31.9281 16.4638 28.6112 13.119 24.3888 12.8763Z" fill="#8273D9"/>
</svg>
