<svg width="48" height="48" viewBox="0 0 48 48" fill="none" xmlns="http://www.w3.org/2000/svg">
<rect width="48" height="48" rx="8" fill="#FDF2E7"/>
<path d="M15.3682 31.6053L17.6248 32.8086V35.4995C17.6248 35.7756 17.8347 35.9994 18.0936 35.9994H23.0622C23.321 35.9994 23.5309 35.7756 23.5309 35.4995V28.9722C23.5309 27.4403 22.4536 26.17 21.0283 26.0176C21.0227 26.0159 19.0455 25.6866 18.1282 24.7082L17.0755 23.5858C16.7213 23.208 16.2505 22.9998 15.7499 22.9998V18.9999C15.7499 17.8972 14.9088 17 13.8749 17C12.8411 17 12 17.8972 12 18.9999V25.7917C12 26.9996 12.3147 28.1812 12.9101 29.2087C13.5053 30.2363 14.3554 31.065 15.3682 31.6053ZM12.9375 18.9999C12.9375 18.4486 13.358 18 13.8749 18C14.3919 18 14.8124 18.4486 14.8124 18.9999V23.2679C14.2407 23.6205 13.8749 24.2778 13.8749 24.9998C13.8749 25.5338 14.07 26.0359 14.4243 26.4137L16.8247 28.9747C17.0076 29.1699 17.3044 29.17 17.4875 28.9747C17.6706 28.7795 17.6706 28.4629 17.4876 28.2676L15.0872 25.7066C14.91 25.5177 14.8124 25.2667 14.8124 24.9998C14.8124 24.5766 15.0635 24.1976 15.4373 24.0567C15.4375 24.0567 15.4376 24.0566 15.4378 24.0565H15.4378C15.761 23.9343 16.1445 24.0068 16.4127 24.2929L17.4654 25.4154C18.5522 26.5746 20.9267 27.0108 20.9314 27.0122C21.8789 27.1135 22.5934 27.9561 22.5934 28.9722V34.9995H18.5623V32.4995C18.5623 32.3102 18.4619 32.137 18.3032 32.0524L15.7875 30.7109C14.0296 29.7731 12.9375 27.8882 12.9375 25.7917V18.9999Z" fill="#D66F0F"/>
<path d="M23.5311 23.4997C23.5311 23.7759 23.741 23.9997 23.9998 23.9997C24.2586 23.9997 24.4685 23.7759 24.4685 23.4997V21.9998H26.2628C28.8919 21.9998 31.0308 19.7183 31.0308 16.9139V14.5C31.0308 14.2978 30.9166 14.1154 30.7415 14.038C30.5663 13.9606 30.3647 14.0034 30.2306 14.1464C29.7147 14.6969 29.0287 15 28.299 15C26.7313 15 25.3381 15.8113 24.4685 17.0609V12.5C24.4685 12.2239 24.2586 12 23.9998 12C23.741 12 23.5311 12.2239 23.5311 12.5V15.061C22.6615 13.8114 21.2682 13 19.7005 13C18.9709 13 18.2849 12.6969 17.7689 12.1465C17.6349 12.0035 17.4333 11.9606 17.2581 12.0381C17.083 12.1155 16.9688 12.2978 16.9688 12.5V14.914C16.9688 17.7183 19.1076 19.9998 21.7367 19.9998H23.5311V23.4997ZM28.299 15.9999C28.9377 15.9999 29.5515 15.827 30.0934 15.502V16.9139C30.0934 19.1669 28.375 20.9998 26.2628 20.9998H25.406L28.0309 18.8998C28.238 18.7342 28.28 18.4208 28.1247 18.1999C27.9694 17.979 27.6756 17.9341 27.4684 18.0999L24.4685 20.4998V20.0858C24.4685 17.8329 26.1869 15.9999 28.299 15.9999ZM17.9062 14.914V13.5021C18.4481 13.8271 19.0619 14 19.7005 14C21.8127 14 23.5311 15.8329 23.5311 18.0859V18.4999L20.5311 16.0999C20.3241 15.9343 20.0303 15.979 19.8749 16.1999C19.7196 16.4208 19.7616 16.7343 19.9687 16.8999L22.5936 18.9998H21.7367C19.6246 18.9998 17.9062 17.1669 17.9062 14.914Z" fill="#D66F0F"/>
<path d="M33.5137 30.8984C33.7725 30.8984 33.9824 30.6746 33.9824 30.3984C33.9824 30.1223 33.7725 29.8984 33.5137 29.8984C33.2548 29.8984 33.0449 30.1223 33.0449 30.3984C33.0449 30.6746 33.2548 30.8984 33.5137 30.8984Z" fill="#D66F0F"/>
<path d="M34.1247 17C33.0909 17 32.2498 17.8972 32.2498 18.9999V22.9998C31.7491 22.9998 31.2783 23.2079 30.9242 23.5857L29.8714 24.7082C28.9743 25.6651 26.9795 26.0158 26.9748 26.0172C25.546 26.17 24.4688 27.4403 24.4688 28.9722V35.4995C24.4688 35.7756 24.6786 35.9994 24.9375 35.9994H29.9061C30.1649 35.9994 30.3748 35.7756 30.3748 35.4995V32.8086L31.909 31.9905C32.1405 31.867 32.2344 31.5667 32.1187 31.3197C32.0029 31.0727 31.7215 30.9726 31.4898 31.096L29.6965 32.0523C29.5377 32.1371 29.4373 32.3102 29.4373 32.4995V34.9995H25.4062V28.9722C25.4062 27.9561 26.1207 27.1135 27.0716 27.0118C27.0763 27.0104 29.3884 26.6376 30.5341 25.4154L31.587 24.2928C31.8553 24.0066 32.2392 23.9345 32.5618 24.0565H32.5619C32.562 24.0565 32.5622 24.0566 32.5623 24.0567C32.9361 24.1976 33.1872 24.5766 33.1872 24.9998C33.1872 25.2667 33.0896 25.5177 32.9125 25.7067L30.5121 28.2677C30.3291 28.463 30.3291 28.7795 30.5122 28.9748C30.6952 29.1699 30.992 29.17 31.175 28.9747L33.5754 26.4138C33.9296 26.0359 34.1247 25.5338 34.1247 24.9998C34.1247 24.2778 33.7589 23.6205 33.1872 23.2679V18.9999C33.1872 18.4486 33.6078 18 34.1247 18C34.6416 18 35.0622 18.4486 35.0622 18.9999V25.7917C35.0622 26.7065 34.8458 27.6147 34.4363 28.4181C34.3126 28.6607 34.3967 28.9643 34.6242 29.0961C34.8516 29.228 35.1363 29.1383 35.2599 28.8957C35.7439 27.9462 35.9997 26.8729 35.9997 25.7917V18.9999C35.9997 17.8972 35.1586 17 34.1247 17Z" fill="#D66F0F"/>
</svg>
